<?xml version="1.0" encoding="utf-8"?>
<!-- Generator: Adobe Illustrator 26.0.2, SVG Export Plug-In . SVG Version: 6.00 Build 0)  -->
<svg version="1.1" id="Layer_1" xmlns="http://www.w3.org/2000/svg" xmlns:xlink="http://www.w3.org/1999/xlink" x="0px" y="0px"
	 viewBox="0 0 108 144" style="enable-background:new 0 0 108 144;" xml:space="preserve">
<style type="text/css">
	.st0{clip-path:url(#SVGID_00000159448099440538459600000005328095674733761968_);fill:#F6EC2E;}
	.st1{clip-path:url(#SVGID_00000073679468756469590960000012245437151680373633_);fill:#F6EC2E;}
	
		.st2{clip-path:url(#SVGID_00000047774323446212014420000001956424153023011720_);fill:none;stroke:#4AB0E3;stroke-width:5.5;stroke-linecap:round;stroke-linejoin:round;stroke-miterlimit:10;}
	
		.st3{clip-path:url(#SVGID_00000033333554914175175620000013484028966127447989_);fill:none;stroke:#F6EC2E;stroke-width:4.5;stroke-linecap:round;stroke-miterlimit:10;}
	
		.st4{clip-path:url(#SVGID_00000031193346459840965660000000640149841791381908_);fill:none;stroke:#F6EC2E;stroke-width:2.75;stroke-miterlimit:10;}
</style>
<g>
	<g>
		<g>
			<defs>
				<polygon id="SVGID_1_" points="17.8,130.4 90.2,125.3 90.2,13.6 17.8,15.6 				"/>
			</defs>
			<clipPath id="SVGID_00000019679298069497136350000006118942302913834687_">
				<use xlink:href="#SVGID_1_"  style="overflow:visible;"/>
			</clipPath>
			<path style="clip-path:url(#SVGID_00000019679298069497136350000006118942302913834687_);fill:#F6EC2E;" d="M68.5,17.4
				c0.6,1.5-0.2,3.1-1.6,3.7c-1.5,0.6-3.1-0.2-3.7-1.6s0.2-3.1,1.6-3.7C66.3,15.2,68,15.9,68.5,17.4"/>
		</g>
		<g>
			<defs>
				<polygon id="SVGID_00000126307007036241620120000006028437060828701586_" points="17.8,130.4 90.2,125.3 90.2,13.6 17.8,15.6 
									"/>
			</defs>
			<clipPath id="SVGID_00000127757677917250827270000001694182096837101184_">
				<use xlink:href="#SVGID_00000126307007036241620120000006028437060828701586_"  style="overflow:visible;"/>
			</clipPath>
			<path style="clip-path:url(#SVGID_00000127757677917250827270000001694182096837101184_);fill:#F6EC2E;" d="M80.7,23.5
				c-0.5,1.2-1.9,1.7-3.1,1.2c-1.2-0.5-1.7-1.9-1.2-3.1c0.5-1.2,1.9-1.7,3.1-1.2C80.7,21,81.2,22.4,80.7,23.5"/>
		</g>
		<g>
			<defs>
				<polygon id="SVGID_00000062186392467852688160000009522386636051527098_" points="17.8,130.4 90.2,125.3 90.2,13.6 17.8,15.6 
									"/>
			</defs>
			<clipPath id="SVGID_00000145740647623761891790000004263155352114424449_">
				<use xlink:href="#SVGID_00000062186392467852688160000009522386636051527098_"  style="overflow:visible;"/>
			</clipPath>
			
				<polyline style="clip-path:url(#SVGID_00000145740647623761891790000004263155352114424449_);fill:none;stroke:#4AB0E3;stroke-width:5.5;stroke-linecap:round;stroke-linejoin:round;stroke-miterlimit:10;" points="
				67.4,92 67.4,123 21.7,58.5 40.7,58.5 25.5,30.4 57.5,30.4 			"/>
		</g>
		<g>
			<defs>
				<polygon id="SVGID_00000083073256414168509830000014864035620116452481_" points="17.8,130.4 90.2,125.3 90.2,13.6 17.8,15.6 
									"/>
			</defs>
			<clipPath id="SVGID_00000098216174660825011880000006478761837824960420_">
				<use xlink:href="#SVGID_00000083073256414168509830000014864035620116452481_"  style="overflow:visible;"/>
			</clipPath>
			
				<path style="clip-path:url(#SVGID_00000098216174660825011880000006478761837824960420_);fill:none;stroke:#F6EC2E;stroke-width:4.5;stroke-linecap:round;stroke-miterlimit:10;" d="
				M48.4,81.9c20.9-10.7,16.1-27.5,16.1-27.5c-2.4-19.8,2.6-24.3,6.2-25.2c1.8-0.4,3.2,0.1,3.2,0.1s6.4,1,9.6,6.1
				c0.8,1.4,0.8,3.5-0.6,4.2c-2.9,1.6-8,6.6-1.7,16.7c0,0,22.1,26.6-18.1,26.4"/>
		</g>
		<g>
			<defs>
				<polygon id="SVGID_00000062881948703093989960000006867491938370184064_" points="17.8,130.4 90.2,125.3 90.2,13.6 17.8,15.6 
									"/>
			</defs>
			<clipPath id="SVGID_00000005968684968732992580000006055567674360310185_">
				<use xlink:href="#SVGID_00000062881948703093989960000006867491938370184064_"  style="overflow:visible;"/>
			</clipPath>
			
				<path style="clip-path:url(#SVGID_00000005968684968732992580000006055567674360310185_);fill:none;stroke:#F6EC2E;stroke-width:2.75;stroke-miterlimit:10;" d="
				M70.7,29.1c-1.8-6.3-4.5-9.5-4.5-9.5 M75,29.4c0,0,0.4-5.7,3-6.5"/>
		</g>
	</g>
</g>
</svg>
